<svg width="16" height="14" viewBox="0 0 16 14" fill="none" xmlns="http://www.w3.org/2000/svg">
<path d="M13.822 13.3332C15.2461 13.3332 16 12.5793 16 11.156V4.32547C16 2.90218 15.2461 2.14179 13.822 2.14179H12.1788C11.6826 2.14179 11.5087 2.0573 11.1865 1.72585L10.6774 1.19293C10.3359 0.835479 9.98792 0.666504 9.33709 0.666504H6.63713C5.98631 0.666504 5.63834 0.835479 5.29682 1.19293L4.78776 1.72585C4.46557 2.0573 4.29158 2.14179 3.78896 2.14179H2.18445C0.760371 2.14179 0 2.90218 0 4.32547V11.156C0 12.5793 0.760371 13.3332 2.18445 13.3332H13.822ZM8.00322 11.221C6.08941 11.221 4.54934 9.6742 4.54934 7.73098C4.54934 5.79426 6.08941 4.24099 8.00322 4.24099C9.91704 4.24099 11.4507 5.79426 11.4507 7.73098C11.4507 9.6742 9.91704 11.221 8.00322 11.221ZM12.7394 6.2297C12.2561 6.2297 11.8566 5.83975 11.8566 5.34583C11.8566 4.8714 12.2626 4.46195 12.7394 4.46195C13.2098 4.46195 13.6158 4.8714 13.6158 5.34583C13.6158 5.83326 13.2163 6.2232 12.7394 6.2297ZM8.00322 9.92766C9.20822 9.92766 10.1748 8.9528 10.1748 7.73098C10.1748 6.51566 9.20822 5.5343 8.00322 5.5343C6.79823 5.5343 5.83166 6.51566 5.83166 7.73098C5.83166 8.9528 6.80467 9.92766 8.00322 9.92766Z" fill="white"/>
</svg>
