<?xml version="1.0" encoding="utf-8"?><svg viewBox="0 0 555 424" xmlns="http://www.w3.org/2000/svg" xmlns:xlink="http://www.w3.org/1999/xlink"><style>:root>svg{display:none}:root>svg:target{display:block}</style><svg viewBox="0 0 256 256" id="about-1" xmlns="http://www.w3.org/2000/svg"><g clip-path="url(#aa)"><path fill-rule="evenodd" clip-rule="evenodd" d="M81.466 19.554C127.835 4.33 214.147-24.007 245.683 40.049c7.875 16.014 9.454 35.995 4.443 56.288-3.965 16.087-11.822 32.414-24.69 51.384-12.501 18.439-27.902 36.987-48.461 58.382-16.044 16.694-30.215 29.696-47.231 38.823C116.086 252.254 102.025 256 88.735 256c-6.461 0-12.72-.882-18.668-2.663-17.99-5.381-34.455-19.889-45.194-39.815-9.84-18.273-14.355-38.915-17.75-58.491-5.324-30.633-8.353-65.618 9.434-92.908 15.805-24.26 44.625-35.921 64.909-42.57zm162.565 21.303C213.192-21.748 127.871 6.239 82.035 21.299 62.008 27.873 33.592 39.35 18.099 63.133.642 89.891 3.671 124.435 8.94 154.718c3.378 19.43 7.839 39.889 17.55 57.923 10.518 19.503 26.58 33.699 44.11 38.933 17.494 5.234 38.732 2.222 58.263-8.264 16.815-9.017 30.876-21.909 46.791-38.493 20.486-21.303 35.814-39.778 48.278-58.124 12.739-18.787 20.504-34.93 24.414-50.797 4.919-19.87 3.378-39.41-4.314-55.039zm-154.323 6.28c37.759-13.846 91.415-27.95 121.245 9.348 6.7 8.356 10.059 17.594 10.059 27.547 0 4.83-.789 9.844-2.368 15.005-4.626 15.15-13.969 29.401-22.505 41.339-10.225 14.269-21.863 28.245-35.593 42.716-10.078 10.633-21.22 21.468-34.4 28.759-10.353 5.748-21.441 8.742-31.812 8.742-4.259 0-8.407-.496-12.317-1.525-13.713-3.581-26.25-13.847-34.382-28.171-7.691-13.645-10.94-29.402-13.107-43.047-.257-1.524-.477-3.067-.697-4.61-2.478-17.722-4.277-43.616 8.774-63.689C51.508 65.87 66.47 55.568 89.708 47.139zm66.524-12.708c-22.468 0-46.332 7.254-65.882 14.435-22.853 8.283-37.538 18.346-46.203 31.68-12.72 19.576-10.94 45.011-8.499 62.439.22 1.543.44 3.067.68 4.592 2.147 13.461 5.36 29.034 12.904 42.404 7.893 13.92 20.009 23.874 33.244 27.308 12.996 3.398 28.599.845 42.77-7.034 12.96-7.18 23.992-17.905 33.978-28.428 13.676-14.398 25.259-28.319 35.428-42.533 8.444-11.808 17.696-25.894 22.248-40.788 4.644-15.206 2.166-28.961-7.379-40.88-6.902-8.631-15.144-14.435-24.212-18.07-9.05-3.637-18.926-5.125-29.077-5.125zm-58.3 40.311c23.973-10.67 66.524-17.685 80.787-2.553 9.655 9.495 13.602 16.675 8.444 29.586-4.406 11.019-13.107 22.056-20.082 30.926l-.257.331c-6.902 8.76-14.428 18.107-22.707 27.069-6.278 6.777-13.235 13.755-21.569 18.677-7.159 4.279-15.089 6.556-22.524 6.556-2.055 0-4.075-.183-6.039-.532-9.508-1.745-18.1-7.75-23.57-16.528-5.525-8.852-7.452-19.394-8.499-27.603-.128-.973-.238-1.965-.348-2.975-1.8-17.244.532-30.577 7.103-40.733 7.49-11.606 20.284-18.236 29.26-22.221zm51.985-9.366c-16.906 0-37.116 4.756-51.233 11.037-13.932 6.19-22.964 13.04-28.47 21.542-6.334 9.807-8.573 22.736-6.81 39.558.091.973.22 1.965.33 2.938 1.028 8.007 2.9 18.31 8.242 26.849 5.195 8.338 13.345 14.049 22.34 15.702 8.572 1.561 18.521-.551 27.296-5.803 8.132-4.812 14.979-11.662 21.165-18.347 8.223-8.906 15.731-18.217 22.597-26.959l.257-.331c6.92-8.778 15.511-19.705 19.825-30.467 4.332-10.835 2.459-17.28-8.041-27.602l-.018-.018c-5.415-5.767-15.64-8.1-27.48-8.1zm-8.976 23.966c9.564-.79 15.071.698 16.815 4.518 2.957 6.423-6.009 17.385-16.403 27.979l-.703.714-.353.356-.708.711a355.75 355.75 0 01-2.136 2.121c-2.551 2.516-4.883 5.381-7.122 8.154-3.396 4.169-6.902 8.466-11.308 11.772-4.038 3.03-9.325 4.903-14.336 4.903-4.387 0-8.554-1.432-11.436-4.83-2.717-3.177-4.039-7.768-3.947-13.663.147-7.346 2.552-13.498 5.93-18.512 3.359-5.014 7.672-8.889 11.601-11.735 9.417-6.832 22.174-11.496 34.106-12.488zm15.144 5.289c-1.34-2.957-6.516-4.15-14.997-3.453-33.978 2.81-49.654 25.638-49.948 40.935-.092 5.418 1.083 9.605 3.506 12.433 5.507 6.446 16.374 4.83 23.276-.349 4.222-3.158 7.655-7.382 10.977-11.459 2.276-2.81 4.644-5.712 7.269-8.301 2.407-2.366 6.327-6.225 10.086-10.485l.591-.676c.197-.226.393-.453.588-.681l.582-.687c5.402-6.425 9.879-13.348 8.07-17.277z" fill-opacity=".14"/></g><defs><clipPath id="aa"><path d="M0 0h256v256H0z"/></clipPath></defs></svg><svg viewBox="0 0 256 256" id="about-2" xmlns="http://www.w3.org/2000/svg"><g clip-path="url(#ba)"><path fill-rule="evenodd" clip-rule="evenodd" d="M81.466 19.554C127.835 4.33 214.147-24.007 245.683 40.049c7.875 16.014 9.454 35.995 4.443 56.288-3.965 16.087-11.822 32.414-24.69 51.384-12.501 18.439-27.902 36.987-48.461 58.382-16.044 16.694-30.215 29.696-47.231 38.823C116.086 252.254 102.025 256 88.735 256c-6.461 0-12.72-.882-18.668-2.663-17.99-5.381-34.455-19.889-45.194-39.815-9.84-18.273-14.355-38.915-17.75-58.491-5.324-30.633-8.353-65.618 9.434-92.908 15.805-24.26 44.625-35.921 64.909-42.57zm162.565 21.303C213.192-21.748 127.871 6.239 82.035 21.299 62.008 27.873 33.592 39.35 18.099 63.133.642 89.891 3.671 124.435 8.94 154.718c3.378 19.43 7.839 39.889 17.55 57.923 10.518 19.503 26.58 33.699 44.11 38.933 17.494 5.234 38.732 2.222 58.263-8.264 16.815-9.017 30.876-21.909 46.791-38.493 20.486-21.303 35.814-39.778 48.278-58.124 12.739-18.787 20.504-34.93 24.414-50.797 4.919-19.87 3.378-39.41-4.314-55.039zm-154.323 6.28c37.759-13.846 91.415-27.95 121.245 9.348 6.7 8.356 10.059 17.594 10.059 27.547 0 4.83-.789 9.844-2.368 15.005-4.626 15.15-13.969 29.401-22.505 41.339-10.225 14.269-21.863 28.245-35.593 42.716-10.078 10.633-21.22 21.468-34.4 28.759-10.353 5.748-21.441 8.742-31.812 8.742-4.259 0-8.407-.496-12.317-1.525-13.713-3.581-26.25-13.847-34.382-28.171-7.691-13.645-10.94-29.402-13.107-43.047-.257-1.524-.477-3.067-.697-4.61-2.478-17.722-4.277-43.616 8.774-63.689C51.508 65.87 66.47 55.568 89.708 47.139zm66.524-12.708c-22.468 0-46.332 7.254-65.882 14.435-22.853 8.283-37.538 18.346-46.203 31.68-12.72 19.576-10.94 45.011-8.499 62.439.22 1.543.44 3.067.68 4.592 2.147 13.461 5.36 29.034 12.904 42.404 7.893 13.92 20.009 23.874 33.244 27.308 12.996 3.398 28.599.845 42.77-7.034 12.96-7.18 23.992-17.905 33.978-28.428 13.676-14.398 25.259-28.319 35.428-42.533 8.444-11.808 17.696-25.894 22.248-40.788 4.644-15.206 2.166-28.961-7.379-40.88-6.902-8.631-15.144-14.435-24.212-18.07-9.05-3.637-18.926-5.125-29.077-5.125zm-58.3 40.311c23.973-10.67 66.524-17.685 80.787-2.553 9.655 9.495 13.602 16.675 8.444 29.586-4.406 11.019-13.107 22.056-20.082 30.926l-.257.331c-6.902 8.76-14.428 18.107-22.707 27.069-6.278 6.777-13.235 13.755-21.569 18.677-7.159 4.279-15.089 6.556-22.524 6.556-2.055 0-4.075-.183-6.039-.532-9.508-1.745-18.1-7.75-23.57-16.528-5.525-8.852-7.452-19.394-8.499-27.603-.128-.973-.238-1.965-.348-2.975-1.8-17.244.532-30.577 7.103-40.733 7.49-11.606 20.284-18.236 29.26-22.221zm51.985-9.366c-16.906 0-37.116 4.756-51.233 11.037-13.932 6.19-22.964 13.04-28.47 21.542-6.334 9.807-8.573 22.736-6.81 39.558.091.973.22 1.965.33 2.938 1.028 8.007 2.9 18.31 8.242 26.849 5.195 8.338 13.345 14.049 22.34 15.702 8.572 1.561 18.521-.551 27.296-5.803 8.132-4.812 14.979-11.662 21.165-18.347 8.223-8.906 15.731-18.217 22.597-26.959l.257-.331c6.92-8.778 15.511-19.705 19.825-30.467 4.332-10.835 2.459-17.28-8.041-27.602l-.018-.018c-5.415-5.767-15.64-8.1-27.48-8.1zm-8.976 23.966c9.564-.79 15.071.698 16.815 4.518 2.957 6.423-6.009 17.385-16.403 27.979l-.703.714-.353.356-.708.711a355.75 355.75 0 01-2.136 2.121c-2.551 2.516-4.883 5.381-7.122 8.154-3.396 4.169-6.902 8.466-11.308 11.772-4.038 3.03-9.325 4.903-14.336 4.903-4.387 0-8.554-1.432-11.436-4.83-2.717-3.177-4.039-7.768-3.947-13.663.147-7.346 2.552-13.498 5.93-18.512 3.359-5.014 7.672-8.889 11.601-11.735 9.417-6.832 22.174-11.496 34.106-12.488zm15.144 5.289c-1.34-2.957-6.516-4.15-14.997-3.453-33.978 2.81-49.654 25.638-49.948 40.935-.092 5.418 1.083 9.605 3.506 12.433 5.507 6.446 16.374 4.83 23.276-.349 4.222-3.158 7.655-7.382 10.977-11.459 2.276-2.81 4.644-5.712 7.269-8.301 2.407-2.366 6.327-6.225 10.086-10.485l.591-.676c.197-.226.393-.453.588-.681l.582-.687c5.402-6.425 9.879-13.348 8.07-17.277z" fill-opacity=".14"/></g><defs><clipPath id="ba"><path d="M0 0h256v256H0z"/></clipPath></defs></svg><svg viewBox="0 0 17 17" id="cart" xmlns="http://www.w3.org/2000/svg"><path d="M2.606 2H0V0h4.394l.449 4H16v5.938L3.77 12.37 2.605 2zM15.5 17a1.5 1.5 0 110-3 1.5 1.5 0 010 3zm-10 0a1.5 1.5 0 110-3 1.5 1.5 0 010 3z"/></svg><svg viewBox="0 0 16 14" id="first-cart" xmlns="http://www.w3.org/2000/svg"><path d="M13.587 10.443a.676.676 0 00.679-.69.675.675 0 00-.679-.682H5.799c-.287 0-.473-.209-.514-.522l-.11-.71h8.487c1.083 0 1.66-.661 1.817-1.761l.494-3.363c.013-.097.027-.216.027-.3 0-.452-.295-.765-.836-.765H4.305L4.21.975C4.12.327 3.846 0 3.037 0H.734a.75.75 0 000 1.497h2.035l1.036 7.198c.157 1.086.733 1.748 1.816 1.748h7.966zM6.19 14c.693 0 1.248-.564 1.248-1.267s-.555-1.267-1.248-1.267c-.692 0-1.247.564-1.247 1.267S5.498 14 6.19 14zm6.286 0c.693 0 1.248-.564 1.248-1.267s-.555-1.267-1.248-1.267c-.692 0-1.254.564-1.254 1.267S11.784 14 12.476 14z"/></svg><svg viewBox="0 0 16 14" id="first-foto" xmlns="http://www.w3.org/2000/svg"><path d="M13.822 13.333c1.424 0 2.178-.754 2.178-2.177v-6.83c0-1.424-.754-2.184-2.178-2.184h-1.643c-.496 0-.67-.085-.992-.416l-.51-.533c-.341-.358-.69-.526-1.34-.526h-2.7c-.65 0-.999.168-1.34.526l-.51.533c-.321.331-.495.416-.998.416H2.184C.76 2.142 0 2.902 0 4.325v6.831c0 1.423.76 2.177 2.184 2.177h11.638zm-5.819-2.112c-1.914 0-3.454-1.547-3.454-3.49 0-1.937 1.54-3.49 3.454-3.49 1.914 0 3.448 1.553 3.448 3.49 0 1.943-1.534 3.49-3.448 3.49zM12.74 6.23a.882.882 0 01-.882-.884.9.9 0 01.882-.884.9.9 0 01.877.884.89.89 0 01-.877.884zM8.003 9.928a2.175 2.175 0 002.172-2.197 2.18 2.18 0 00-2.172-2.197 2.18 2.18 0 00-2.171 2.197 2.18 2.18 0 002.171 2.197z"/></svg><svg viewBox="0 0 16 16" id="first-login" xmlns="http://www.w3.org/2000/svg"><path d="M8.004 7.775c1.913 0 3.505-1.728 3.505-3.94C11.509 1.675 9.908 0 8.004 0 6.101 0 4.483 1.701 4.491 3.852c0 2.195 1.601 3.923 3.513 3.923zM13.724 16c1.004 0 1.61-.494 1.61-1.305 0-2.265-2.848-5.368-7.338-5.368-4.483 0-7.33 3.103-7.33 5.368 0 .811.606 1.305 1.61 1.305h11.448z"/></svg><svg viewBox="0 0 16 16" id="first-tel" xmlns="http://www.w3.org/2000/svg"><path d="M9.845 15.073L15.79 2.12c.705-1.527-.47-2.592-1.96-1.91L.862 6.2c-1.345.617-1.061 2.527.47 2.535l5.815.016c.098 0 .114.008.114.114l.016 5.81c0 1.511 1.903 1.845 2.568.398z"/></svg><svg viewBox="0 0 471 424" id="setting-1" xmlns="http://www.w3.org/2000/svg"><path fill-rule="evenodd" clip-rule="evenodd" d="M424.478 113.598c17.069 3.438 33.466 5.994 46.522 1.08v5.706c-15.782 4.914-34.426 1.17-47.731-1.512-128.813-25.92-235.335-23.076-325.69 8.73-46.925 16.506-75.686 39.528-85.517 68.436-4.416 12.996-4.819 27.018-5.203 40.572-.845 30.132-1.747 61.29 7.719 90.54 5.433 16.848 14.63 34.002 28.108 52.434 7.546 10.314 16.992 21.708 29.78 27.99 11.174 5.508 24.096 6.876 37.459 7.902a919.118 919.118 0 0051.245 2.466c9.446.18 17.875.09 25.44-2.952 9.446-3.834 16.416-12.042 22.56-19.278l75.072-88.452c13.132-15.48 28.032-33.03 47.616-44.172 17.356-9.9 43.814-16.29 65.99-4.59 4.339 2.304 8.256 5.166 12.038 7.938 3.514 2.592 6.836 5.04 10.484 7.056 14.976 8.298 32.678 8.1 50.63 4.068v5.436c-27.475 5.976-42.47 1.278-53.549-4.86-3.993-2.196-7.622-4.86-11.117-7.434-3.782-2.772-7.353-5.4-11.308-7.488-16.493-8.712-40.109-6.948-60.192 4.482-18.682 10.638-32.621 27.054-46.1 42.93l-75.052 88.452c-6.26 7.362-14.016 16.506-24.788 20.862-7.142 2.88-14.88 3.456-22.867 3.456-1.651 0-3.321-.018-4.992-.054a930.898 930.898 0 01-51.571-2.484c-13.978-1.08-27.533-2.52-39.667-8.496-13.92-6.84-23.904-18.864-31.853-29.718-13.824-18.9-23.27-36.54-28.896-53.928C.641 302.671.185 275.508.774 248.859l.084-3.55.046-1.773.096-3.539.1-3.531c.402-13.932.806-28.332 5.471-42.066 10.387-30.564 40.34-54.738 88.992-71.856 91.411-32.184 199.008-35.1 328.915-8.946zm-307.584 33.84c48.5-14.922 138.778-42.696 171.764 20.088 8.236 15.696 9.888 35.28 4.646 55.17-4.147 15.768-12.365 31.77-25.824 50.364-13.075 18.072-29.184 36.252-50.688 57.222-16.781 16.362-31.603 29.106-49.402 38.052-14.284 7.182-28.992 10.854-42.892 10.854-6.759 0-13.306-.864-19.527-2.61-18.816-5.274-36.038-19.494-47.27-39.024-10.291-17.91-15.015-38.142-18.567-57.33-5.568-30.024-8.736-64.314 9.87-91.062 16.53-23.778 46.674-35.208 67.89-41.724zm170.036 20.88c-32.256-61.362-121.498-33.93-169.44-19.17-20.948 6.444-50.67 17.694-66.874 41.004-18.26 26.226-15.091 60.084-9.58 89.766 3.532 19.044 8.198 39.096 18.354 56.772 11.002 19.116 27.802 33.03 46.138 38.16 18.298 5.13 40.512 2.178 60.941-8.1 17.587-8.838 32.294-21.474 48.941-37.728 21.427-20.88 37.459-38.988 50.496-56.97 13.324-18.414 21.446-34.236 25.536-49.788 5.145-19.476 3.532-38.628-4.512-53.946zm-161.415 6.156c39.495-13.572 95.616-27.396 126.816 9.162 7.008 8.19 10.522 17.244 10.522 27 0 4.734-.826 9.648-2.477 14.706-4.838 14.85-14.611 28.818-23.539 40.518-10.695 13.986-22.867 27.684-37.229 41.868-10.541 10.422-22.195 21.042-35.981 28.188-10.829 5.634-22.425 8.568-33.273 8.568-4.455 0-8.794-.486-12.884-1.494-14.342-3.51-27.456-13.572-35.961-27.612-8.045-13.374-11.443-28.818-13.709-42.192-.269-1.494-.5-3.006-.73-4.518-2.592-17.37-4.473-42.75 9.178-62.424 9.312-13.41 24.96-23.508 49.267-31.77zm69.581-12.456c-23.501 0-48.461 7.11-68.909 14.148-23.904 8.118-39.264 17.982-48.326 31.05-13.306 19.188-11.443 44.118-8.89 61.2.23 1.512.461 3.006.71 4.5 2.247 13.194 5.607 28.458 13.498 41.562 8.256 13.644 20.928 23.4 34.771 26.766 13.594 3.33 29.914.828 44.736-6.894 13.556-7.038 25.095-17.55 35.54-27.864 14.304-14.112 26.419-27.756 37.056-41.688 8.832-11.574 18.508-25.38 23.27-39.978 4.858-14.904 2.266-28.386-7.718-40.068-7.22-8.46-15.84-14.148-25.325-17.712-9.466-3.564-19.795-5.022-30.413-5.022zm-60.979 39.51c25.075-10.458 69.581-17.334 84.499-2.502 10.099 9.306 14.227 16.344 8.832 28.998-4.608 10.8-13.709 21.618-21.005 30.312l-.269.324c-7.219 8.586-15.091 17.748-23.75 26.532-6.566 6.642-13.843 13.482-22.56 18.306-7.488 4.194-15.782 6.426-23.558 6.426-2.151 0-4.263-.18-6.317-.522-9.946-1.71-18.931-7.596-24.653-16.2-5.78-8.676-7.795-19.008-8.89-27.054-.134-.954-.25-1.926-.364-2.916-1.882-16.902.556-29.97 7.43-39.924 7.834-11.376 21.216-17.874 30.605-21.78zm54.374-9.18c-17.683 0-38.822 4.662-53.587 10.818-14.573 6.066-24.019 12.78-29.779 21.114-6.624 9.612-8.967 22.284-7.123 38.772.096.954.23 1.926.345 2.88 1.075 7.848 3.034 17.946 8.621 26.316 5.434 8.172 13.958 13.77 23.366 15.39 8.967 1.53 19.373-.54 28.551-5.688 8.505-4.716 15.667-11.43 22.137-17.982 8.602-8.73 16.455-17.856 23.636-26.424l.268-.324c7.239-8.604 16.224-19.314 20.736-29.862 4.532-10.62 2.573-16.938-8.409-27.054l-.019-.018c-5.664-5.652-16.359-7.938-28.743-7.938zm-9.389 23.49c10.004-.774 15.764.684 17.588 4.428 3.215 6.546-7.051 17.901-18.46 28.66l-1.107 1.039-.555.518-1.114 1.031c-2.668 2.466-5.107 5.274-7.449 7.992-3.552 4.086-7.219 8.298-11.827 11.538-4.224 2.97-9.754 4.806-14.996 4.806-4.588 0-8.947-1.404-11.961-4.734-2.842-3.114-4.224-7.614-4.128-13.392.153-7.2 2.669-13.23 6.201-18.144 3.514-4.914 8.026-8.712 12.135-11.502 9.849-6.696 23.193-11.268 35.673-12.24zm15.84 5.184c-1.401-2.898-6.816-4.068-15.686-3.384-35.539 2.754-51.936 25.128-52.243 40.122-.096 5.31 1.133 9.414 3.667 12.186 5.76 6.318 17.126 4.734 24.346-.342 4.416-3.096 8.006-7.236 11.481-11.232 2.381-2.754 4.858-5.598 7.603-8.136a456.68 456.68 0 002.055-1.901l.781-.73c7.744-7.269 20.966-20.54 17.996-26.583zm156.749-86.904c13.978.27 28.032 2.106 41.626 3.906 8.16 1.062 16.608 2.178 24.921 2.916 21.101 1.908 38.247.954 52.762-3.042v1.872c-14.65 3.942-31.834 4.878-52.934 2.97-8.372-.756-16.839-1.872-25.018-2.934-13.536-1.782-27.533-3.618-41.395-3.888-6.298-.108-13.363.342-17.587 4.644-5.3 5.346-3.322 13.806-2.228 17.19.73 2.286 1.69 4.554 2.631 6.768 1.555 3.654 3.149 7.434 3.801 11.43.749 4.59.212 9.252-.307 13.752-.249 2.142-.499 4.374-.614 6.552-.231 4.644.288 13.122 6.393 17.622 5.453 3.996 12.557 3.312 20.103 2.574 4.109-.396 8.371-.828 12.422-.432 9.85.954 17.971 6.642 25.824 12.132 2.573 1.782 5.223 3.654 7.872 5.292 17.779 10.998 40.397 14.346 61.037 9.828v1.854a87.638 87.638 0 01-18.144 1.89c-15.494 0-30.97-4.05-43.949-12.078-2.688-1.674-5.376-3.528-7.949-5.346l-1.486-1.036c-7.201-5.004-14.686-9.894-23.397-10.736-3.859-.378-8.006.036-12.038.414-7.584.756-15.418 1.512-21.485-2.952-6.778-4.986-7.373-14.112-7.123-19.116.115-2.232.384-4.482.633-6.66.5-4.392 1.037-8.928.308-13.284-.615-3.798-2.17-7.47-3.687-11.034-.941-2.25-1.92-4.554-2.688-6.912-1.19-3.69-3.302-12.888 2.65-18.936 4.761-4.806 12.288-5.328 19.046-5.22zM471 161.334v1.872c-22.138 5.796-45.965 3.978-67.296 2.34-8.717-.666-20.851-.666-25.478 7.038-3.476 5.814-.461 13.41 4.147 17.604 5.049 4.608 12.173 6.876 19.123 8.658 24.269 6.192 47.904 7.686 69.504 4.518v1.818c-7.334 1.08-14.861 1.602-22.579 1.602-15.264 0-31.219-2.07-47.424-6.21-7.2-1.836-14.592-4.194-19.968-9.09-5.242-4.788-8.467-13.122-4.474-19.782 5.165-8.604 18.048-8.658 27.303-7.938 21.35 1.638 45.196 3.456 67.142-2.43zM114.706 0c-.903 19.098-4.455 37.944-10.599 56.304-2.477 7.362-4.665 15.642.442 20.718 4.07 4.032 10.963 3.96 16.493 3.456 12.096-1.116 24.172-3.816 35.827-6.408 4.934-1.098 10.041-2.25 15.091-3.258 63.443-12.635 127.962-7.22 193.823 1.6l4.822.651c3.216.438 6.435.883 9.658 1.334l4.836.68 2.419.343c25.594 3.636 55.623 7.902 83.482 3.42v1.836c-8.525 1.368-17.261 1.908-25.997 1.908-19.949 0-39.917-2.844-57.773-5.382-4.829-.686-9.651-1.362-14.466-2.023l-4.812-.656c-66.537-8.994-131.67-14.687-195.589-1.947-5.03 1.008-10.118 2.142-15.053 3.24-11.731 2.61-23.846 5.31-36.076 6.444-5.511.504-13.383.648-18.087-4.014-5.817-5.778-3.494-14.634-.864-22.482C108.35 37.602 111.864 18.9 112.766 0h1.94zm37.152 0a60.666 60.666 0 01-6.778 30.348l-.288.558c-.922 1.746-1.862 3.546-1.92 5.382-.154 4.05 4.032 7.272 8.179 8.046 4.359.828 8.967-.27 13.402-1.332l.211-.054c46.003-10.998 93.35-15.3 140.755-12.762 14.17.756 28.531 2.142 42.413 3.492 18.451 1.782 37.536 3.636 56.371 3.996 25.479.522 47.578-1.872 66.797-7.254v1.872c-19.277 5.328-41.395 7.704-66.835 7.182-18.912-.378-38.035-2.214-56.525-4.014-13.862-1.332-28.205-2.736-42.336-3.492-47.194-2.502-94.349 1.764-140.16 12.726l-.211.054c-3.475.828-7.047 1.674-10.637 1.674-1.21 0-2.419-.09-3.629-.324-4.915-.918-9.907-4.86-9.715-9.882.077-2.214 1.114-4.194 2.112-6.102l.307-.558c4.743-9.144 7.008-19.404 6.586-29.556h1.901z" fill-opacity=".09"/></svg><svg viewBox="0 0 555 422" id="setting-2" xmlns="http://www.w3.org/2000/svg"><path fill-rule="evenodd" clip-rule="evenodd" d="M338.918 36.174c25.824 6.174 54.644 21.996 58.08 47.898 1.728 13.086-3.436 25.704-7.987 36.846l-27.552 67.392c-9.427 23.058-20.102 49.176-15.59 75.132 4.915 28.206 29.107 52.326 58.809 58.662 8.852 1.89 18.394 2.376 27.629 2.862 16.589.846 33.735 1.728 47.885 10.638 22.214 13.986 26.534 41.13 27.13 56.07.71 18.306-3.015 32.13-11.424 42.282-.288.342-.576.702-.903 1.044h-7.603c1.421-1.476 2.746-2.916 3.955-4.356 7.546-9.108 10.887-21.798 10.215-38.772-.557-13.914-4.474-39.132-24.576-51.786-12.256-7.723-27.071-8.789-42.804-9.623l-2.201-.115c-9.466-.486-19.258-.99-28.57-2.97-31.949-6.822-57.945-32.742-63.225-63.072-4.762-27.378 6.681-55.404 15.897-77.94l27.552-67.374c4.301-10.548 9.197-22.5 7.642-34.254-3.072-23.202-29.799-37.602-53.779-43.326-59.386-14.202-122.016-.054-181.076 15.66-29.587 7.866-56.025 15.48-79.872 29.178-5.913 3.384-11.75 7.218-17.395 10.926-11.213 7.38-22.81 14.994-35.904 19.782-7.027 2.574-15.11 4.176-23.251 4.338v-5.382c7.373-.162 14.765-1.638 21.158-3.978 12.442-4.554 23.75-11.988 34.695-19.17 5.721-3.762 11.616-7.65 17.683-11.124 24.46-14.022 52.416-22.086 81.312-29.772 59.808-15.912 123.302-30.222 184.07-15.696zm22.388-25.308c26.688 6.894 45.062 16.164 57.811 29.196 10.31 10.53 32.697 41.22 17.721 98.316-4.339 16.488-10.828 32.616-17.126 48.24-6.47 16.02-13.152 32.598-17.434 49.5-2.169 8.514-3.82 18.324.192 26.586 2.65 5.418 7.68 10.152 15.399 14.49 13.958 7.848 30.355 11.43 46.195 14.886l2.859.626c16.227 3.565 32.811 7.503 46.792 16.258 21.312 13.338 35.77 37.872 39.648 67.302 2.592 19.638.672 39.366-2.361 58.734h-1.94c3.034-19.332 4.973-39.006 2.4-58.518-3.82-28.908-17.971-52.974-38.822-66.024-13.288-8.316-29.141-12.231-44.75-15.681l-2.834-.624-1.414-.309c-15.994-3.492-32.544-7.11-46.752-15.102-8.064-4.536-13.364-9.54-16.167-15.282-4.262-8.766-2.553-18.954-.307-27.756 4.32-17.01 11.021-33.642 17.491-49.734 6.279-15.552 12.768-31.644 17.05-48.024 14.765-56.25-7.162-86.346-17.261-96.678-12.48-12.762-30.566-21.87-56.909-28.656C284.544-7.08 197.203 1.164 85.939 38.532L79.2 40.818C53.645 49.458 27.226 58.386 0 58.35v-1.8c23.57.047 46.582-6.755 68.984-14.208l3.196-1.069c2.128-.714 4.25-1.431 6.367-2.147l6.759-2.286c111.648-37.494 199.353-45.756 276-25.974zm-63.13 61.704c26.515 3.996 41.933 20.556 45.466 35.208 3.388 14.042-1.921 28.021-7.587 41.594l-.741 1.768-.37.882-.941 2.25c-19.449 46.548-25.267 86.058-17.779 120.762 10.963 50.778 49.574 79.92 82.982 86.292 3.149.612 6.432 1.062 9.62 1.494 7.584 1.062 15.417 2.16 22.483 5.328 16.224 7.326 26.4 25.848 24.729 45.054-.633 7.218-2.784 14.526-6.355 21.798h-2.112c3.379-6.678 5.856-14.058 6.547-21.942 1.613-18.486-8.102-36.288-23.654-43.29-6.778-3.06-14.477-4.122-21.926-5.166-3.207-.432-6.509-.9-9.716-1.512-20.755-3.96-39.878-14.904-55.334-31.662-14.342-15.57-24.691-35.46-29.146-56.034-7.564-35.064-1.728-74.898 17.876-121.788l.94-2.25c5.952-14.148 12.077-28.764 8.621-43.182-3.398-14.058-18.278-29.97-43.91-33.84-14.17-2.124-28.685.306-42.72 2.682-4.762.792-9.658 1.62-14.477 2.25a428.146 428.146 0 00-60.787 12.564c-40.128 11.394-77.76 28.368-111.879 50.454-1.728 1.098-3.436 2.232-5.164 3.366-11.847 7.794-24.116 15.84-38.266 19.35-8.026 1.998-16.205 2.43-24.576 2.592v-1.8c8.218-.162 16.262-.594 24.096-2.52 13.824-3.438 25.94-11.394 37.651-19.098 1.728-1.134 3.437-2.268 5.165-3.384 34.291-22.176 72.096-39.222 112.416-50.67a427.242 427.242 0 0161.075-12.636c4.781-.63 9.677-1.44 14.4-2.25 14.189-2.394 28.877-4.86 43.373-2.664zm-22.771 208.224c4.07 6.984 4.301 15.048 4.531 22.86.134 5.094.288 10.35 1.498 15.246 3.379 13.662 14.572 25.434 35.27 37.08 13.19 7.434 27.187 13.734 41.626 18.774l3.801 1.296c15.975 5.49 34.099 11.718 41.357 26.478 4.282 8.748 3.917 19.872-.979 29.754A41.877 41.877 0 01401.03 435h-2.208a36.868 36.868 0 001.94-3.474c4.665-9.414 5.03-19.98.979-28.242-6.209-12.661-20.521-18.64-35.268-23.809l-1.671-.582c-1.114-.386-2.23-.769-3.343-1.151l-3.801-1.314a259.894 259.894 0 01-41.952-18.9c-21.159-11.916-32.64-24.066-36.135-38.214-1.267-5.076-1.421-10.44-1.555-15.606-.23-7.956-.442-15.462-4.301-22.068-7.795-13.41-27.571-16.29-42.221-12.186-12.652 3.528-23.654 11.088-34.291 18.396-2.457 1.674-4.915 3.366-7.392 4.986-27.955 18.504-61.44 32.994-105.389 45.576C58.752 345.774 29.414 352.524 0 350.4v-1.818c29.146 2.142 58.31-4.59 83.846-11.898 43.757-12.528 77.069-26.928 104.871-45.306 2.457-1.638 4.896-3.312 7.353-4.986 10.772-7.398 21.908-15.048 34.868-18.666 15.379-4.302 36.172-1.188 44.467 13.068zm-29.991 51.246c3.149 4.482 4.532 9.738 5.876 14.832.403 1.548.806 3.078 1.248 4.59 6.028 20.268 21.6 36.36 40.646 42.03 4.666 1.386 9.6 2.196 14.362 2.97 3.667.594 7.468 1.206 11.155 2.088 10.464 2.502 18.086 7.11 22.022 13.338 4.704 7.452 3.802 15.804 1.056 23.112h-2.016c2.765-7.038 3.802-15.102-.691-22.194-4.646-7.344-13.901-10.854-20.851-12.51-3.61-.864-7.373-1.476-11.002-2.07-4.838-.774-9.83-1.584-14.611-3.006-19.661-5.85-35.731-22.428-41.914-43.272-.46-1.53-.864-3.078-1.267-4.644-1.305-4.932-2.649-10.062-5.606-14.274-7.085-10.044-21.754-12.618-33.139-10.692-11.175 1.89-21.428 7.29-31.316 12.528l-3.244 1.692C134.304 358.446 71.501 382.62 0 381.162v-1.782c71.098 1.458 133.574-22.608 175.2-44.388l3.206-1.71c10.042-5.292 20.429-10.782 31.93-12.708 12.019-2.034 27.514.738 35.078 11.466zm-37.036 43.884c4.628 3.548 7.208 8.608 9.558 13.655l.637 1.375c1.67 3.618 3.398 7.344 5.798 10.512 5.607 7.362 14.746 11.574 23.559 15.642 1.344.612 2.668 1.224 3.974 1.854 4.128 1.944 8.774 4.374 11.405 8.424 1.555 2.376 2.265 5.076 2.669 7.614h-1.94c-.384-2.268-1.036-4.644-2.361-6.678-2.381-3.636-6.739-5.922-10.637-7.758a792.178 792.178 0 00-3.955-1.836l-1.753-.811c-8.482-3.934-17.02-8.166-22.516-15.407-2.534-3.33-4.301-7.146-6.01-10.854-2.553-5.526-4.953-10.746-9.638-14.328-5.491-4.194-14.016-5.526-22.79-3.546-6.759 1.512-13.095 4.626-19.22 7.632a554.23 554.23 0 01-3.244 1.584C111.072 407.478 53.318 414.372 0 418.656v-1.8c53.107-4.284 110.554-11.16 161.03-35.46a259.392 259.392 0 003.226-1.584c6.24-3.042 12.691-6.21 19.68-7.776 9.485-2.142 18.394-.72 24.442 3.888zm-25.92 52.254c2.995 1.818 5.779 3.996 8.486 6.084l.941.738h-3.015c-2.38-1.872-4.857-3.726-7.449-5.31-13.114-7.92-30.951-9.324-53.05-4.158-6.547 1.53-13.113 3.492-19.469 5.382-4.704 1.386-9.504 2.826-14.342 4.086h-7.565c7.239-1.602 14.362-3.726 21.331-5.796 6.375-1.908 12.98-3.87 19.584-5.418 22.618-5.292 40.973-3.816 54.548 4.392zm-48.768-276.12c38.419-15.138 118.368-46.62 147.859-31.428 6.125 3.15 9.849 8.172 11.059 14.922 4.987 27.632-25.485 60.802-42.419 76.783l-1.159 1.087a234.006 234.006 0 01-5.824 5.254c-26.304 22.914-57.83 40.122-90.547 57.168-39.552 20.628-84.384 43.992-133.21 45.54-1.42.054-2.841.072-4.223.072-5.492 0-10.56-.36-15.226-1.098v-1.818c5.798.936 12.25 1.278 19.392 1.044 48.365-1.53 92.986-24.786 132.346-45.306 32.601-16.992 64.012-34.128 90.163-56.916 12.883-11.232 54.451-50.256 48.806-81.504-1.113-6.174-4.512-10.764-10.08-13.644-28.665-14.778-108.057 16.488-146.189 31.5-8.102 3.186-14.476 5.706-18.24 6.948C77.606 173.352 34.234 187.608 0 213.132v-2.304c34.291-25.146 77.26-39.294 115.565-51.876 3.705-1.206 10.061-3.726 18.125-6.894zm-44.372 47.25c10.503-3.564 26.746-4.194 37.632 2.862 6.663 4.32 10.253 10.926 10.349 19.098.135 9.99-6.105 19.89-19.065 30.24-17.895 14.31-39.226 25.344-63.437 32.832-13.075 4.05-24.346 6.03-34.483 6.03-4.628 0-9.044-.414-13.268-1.242-2.13-.396-4.838-1.08-7.046-2.502v-2.322c2.016 1.836 5.107 2.61 7.43 3.078 13.19 2.538 28.052 1.026 46.772-4.752 23.961-7.416 45.081-18.342 62.784-32.49 12.499-9.99 18.508-19.422 18.393-28.854-.096-7.668-3.302-13.608-9.523-17.64-8.851-5.742-23.597-6.822-35.866-2.646l-5.03 1.71c-21.83 7.398-44.41 15.03-62.266 29.34C11.54 240.996 3.686 251.85 0 263.1v-5.328c4.262-9.846 11.597-19.206 21.446-27.09 9.063-7.254 19.277-12.816 29.972-17.478 10.713-4.68 21.888-8.46 32.89-12.186l5.01-1.71zm135.629-46.188c10.906-.576 19.027 2.412 22.291 8.154 3.168 5.544 1.46 12.924-4.819 20.772-12 15.03-32.006 24.318-51.821 24.318-1.286 0-2.592-.036-3.878-.126-2.246-.144-4.608-.396-6.758-1.386-5.78-2.664-7.469-9.36-7.181-14.274.576-9.576 7.142-19.242 17.529-25.848 5.28-3.348 11.156-6.102 17.108-8.1 5.932-1.998 11.961-3.222 17.529-3.51zm2.573 1.728c-.806 0-1.632.036-2.477.072-10.79.558-23.366 4.77-33.638 11.304-4.954 3.132-8.986 7.002-11.866 11.196-2.861 4.212-4.55 8.748-4.838 13.266-.269 4.356 1.171 10.278 6.105 12.546 1.844.846 3.994 1.08 6.048 1.206 20.41 1.278 41.626-7.938 54.029-23.472 5.799-7.254 7.469-13.95 4.666-18.846-2.669-4.68-9.159-7.272-18.029-7.272z" fill-opacity=".09"/></svg></svg>